<svg width="900" height="700" viewBox="0 0 900 700" fill="none" xmlns="http://www.w3.org/2000/svg">
  <rect width="900" height="700" rx="40" fill="#080808"/>
  <rect width="900" height="700" rx="40" fill="url(#paint0_radial)"/>
  <rect x="110" y="90" width="680" height="430" rx="28" fill="url(#paint1_linear)" stroke="rgba(255,255,255,0.14)"/>
  <rect x="160" y="142" width="290" height="20" rx="10" fill="rgba(255,255,255,0.24)"/>
  <rect x="160" y="184" width="210" height="12" rx="6" fill="rgba(255,255,255,0.12)"/>
  <rect x="160" y="390" width="190" height="12" rx="6" fill="rgba(255,255,255,0.12)"/>
  <rect x="160" y="422" width="254" height="12" rx="6" fill="rgba(255,255,255,0.08)"/>
  <rect x="522" y="148" width="164" height="216" rx="28" fill="url(#paint2_linear)"/>
  <circle cx="604" cy="256" r="126" fill="url(#paint3_radial)"/>
  <path d="M70 602C220 566 352 544 484 544C636 544 738 560 854 604" stroke="url(#paint4_linear)" stroke-width="2"/>
  <defs>
    <radialGradient id="paint0_radial" cx="0" cy="0" r="1" gradientUnits="userSpaceOnUse" gradientTransform="translate(450 120) rotate(90) scale(520 680)">
      <stop stop-color="#E2E6EA" stop-opacity="0.08"/>
      <stop offset="1" stop-color="#080808" stop-opacity="0"/>
    </radialGradient>
    <linearGradient id="paint1_linear" x1="110" y1="90" x2="790" y2="520" gradientUnits="userSpaceOnUse">
      <stop stop-color="#1C1C1C"/>
      <stop offset="0.5" stop-color="#101010"/>
      <stop offset="1" stop-color="#050505"/>
    </linearGradient>
    <linearGradient id="paint2_linear" x1="522" y1="148" x2="686" y2="364" gradientUnits="userSpaceOnUse">
      <stop stop-color="#D7DDE2"/>
      <stop offset="0.45" stop-color="#9EA7AF"/>
      <stop offset="1" stop-color="#4D545B"/>
    </linearGradient>
    <radialGradient id="paint3_radial" cx="0" cy="0" r="1" gradientUnits="userSpaceOnUse" gradientTransform="translate(604 256) rotate(90) scale(126)">
      <stop stop-color="#F4F7D2" stop-opacity="0.22"/>
      <stop offset="0.35" stop-color="#B5BDC5" stop-opacity="0.18"/>
      <stop offset="1" stop-color="#0A0A0A" stop-opacity="0"/>
    </radialGradient>
    <linearGradient id="paint4_linear" x1="70" y1="602" x2="854" y2="604" gradientUnits="userSpaceOnUse">
      <stop stop-color="#D4DBE1" stop-opacity="0"/>
      <stop offset="0.4" stop-color="#D4DBE1" stop-opacity="0.6"/>
      <stop offset="1" stop-color="#D4DBE1" stop-opacity="0"/>
    </linearGradient>
  </defs>
</svg>
