<svg width="1600" height="1000" viewBox="0 0 1600 1000" fill="none" xmlns="http://www.w3.org/2000/svg">
  <rect width="1600" height="1000" fill="#050505"/>
  <rect width="1600" height="1000" fill="url(#paint0_radial)"/>
  <rect width="1600" height="1000" fill="url(#paint1_radial)"/>
  <path d="M135 776C392 692 626 594 866 550C1096 508 1318 520 1534 606" stroke="url(#paint2_linear)" stroke-width="2"/>
  <path d="M86 236C340 226 540 198 728 198C928 198 1128 230 1498 316" stroke="url(#paint3_linear)" stroke-opacity="0.45" stroke-width="1.5"/>
  <path d="M1190 116C1120 184 1068 282 1002 376C930 478 830 556 692 626" stroke="url(#paint4_linear)" stroke-opacity="0.28" stroke-width="2"/>
  <circle cx="1194" cy="290" r="176" fill="url(#paint5_radial)"/>
  <defs>
    <radialGradient id="paint0_radial" cx="0" cy="0" r="1" gradientUnits="userSpaceOnUse" gradientTransform="translate(790 522) rotate(90) scale(418 671)">
      <stop stop-color="#D9DEE3" stop-opacity="0.12"/>
      <stop offset="1" stop-color="#050505" stop-opacity="0"/>
    </radialGradient>
    <radialGradient id="paint1_radial" cx="0" cy="0" r="1" gradientUnits="userSpaceOnUse" gradientTransform="translate(240 194) rotate(51.6159) scale(251.472 289.401)">
      <stop stop-color="#E9FF3F" stop-opacity="0.12"/>
      <stop offset="1" stop-color="#050505" stop-opacity="0"/>
    </radialGradient>
    <linearGradient id="paint2_linear" x1="135" y1="776" x2="1534" y2="606" gradientUnits="userSpaceOnUse">
      <stop stop-color="#C4CCD3" stop-opacity="0"/>
      <stop offset="0.35" stop-color="#DDE2E7" stop-opacity="0.6"/>
      <stop offset="0.7" stop-color="#A8B0B8" stop-opacity="0.35"/>
      <stop offset="1" stop-color="#C4CCD3" stop-opacity="0"/>
    </linearGradient>
    <linearGradient id="paint3_linear" x1="86" y1="236" x2="1498" y2="316" gradientUnits="userSpaceOnUse">
      <stop stop-color="#D8DEE4" stop-opacity="0"/>
      <stop offset="0.45" stop-color="#F2F4F6" stop-opacity="0.65"/>
      <stop offset="1" stop-color="#D8DEE4" stop-opacity="0"/>
    </linearGradient>
    <linearGradient id="paint4_linear" x1="1190" y1="116" x2="692" y2="626" gradientUnits="userSpaceOnUse">
      <stop stop-color="#F5F7F9" stop-opacity="0"/>
      <stop offset="0.4" stop-color="#CDD4DB" stop-opacity="0.48"/>
      <stop offset="1" stop-color="#F5F7F9" stop-opacity="0"/>
    </linearGradient>
    <radialGradient id="paint5_radial" cx="0" cy="0" r="1" gradientUnits="userSpaceOnUse" gradientTransform="translate(1194 290) rotate(90) scale(176)">
      <stop stop-color="#F7F9FA" stop-opacity="0.18"/>
      <stop offset="1" stop-color="#F7F9FA" stop-opacity="0"/>
    </radialGradient>
  </defs>
</svg>
