<?xml version="1.0" standalone="no"?>
<!DOCTYPE svg PUBLIC "-//W3C//DTD SVG 20010904//EN"
 "http://www.w3.org/TR/2001/REC-SVG-20010904/DTD/svg10.dtd">
<svg version="1.0" xmlns="http://www.w3.org/2000/svg"
 width="512.000000pt" height="512.000000pt" viewBox="0 0 512.000000 512.000000"
 preserveAspectRatio="xMidYMid meet">

<g transform="translate(0.000000,512.000000) scale(0.100000,-0.100000)"
fill="#000000" stroke="none">
<path d="M910 4795 c0 -3 67 -189 149 -413 82 -224 182 -498 222 -609 41 -112
76 -203 79 -203 3 1 104 123 225 272 234 289 440 544 648 801 l128 157 -725 0
c-399 0 -726 -2 -726 -5z"/>
<path d="M2818 4728 c32 -40 146 -181 253 -313 596 -734 682 -837 689 -824 5
8 47 120 95 249 48 129 148 396 221 593 74 196 134 360 134 362 0 3 -327 5
-726 5 l-725 0 59 -72z"/>
<path d="M2270 4389 c-157 -194 -385 -475 -507 -625 -123 -150 -223 -275 -223
-278 0 -3 459 -6 1020 -6 561 0 1020 3 1020 6 0 3 -103 132 -230 287 -126 155
-353 435 -505 622 -152 187 -279 341 -283 342 -4 2 -135 -155 -292 -348z"/>
<path d="M373 4081 l-372 -596 586 -3 c322 -1 589 0 591 3 3 3 -6 38 -20 78
-85 238 -399 1090 -405 1101 -5 8 -135 -191 -380 -583z"/>
<path d="M4359 4654 c-6 -16 -46 -123 -89 -239 -43 -115 -137 -368 -209 -561
-72 -193 -131 -356 -131 -362 0 -9 152 -12 596 -12 473 0 594 3 588 13 -5 6
-174 277 -376 601 -354 566 -368 587 -379 560z"/>
<path d="M133 3163 c57 -71 179 -222 272 -338 93 -115 224 -277 290 -360 199
-246 1095 -1358 1383 -1718 101 -126 186 -227 188 -224 2 2 -2 19 -10 38 -8
19 -75 203 -151 409 -75 206 -206 564 -290 795 -85 231 -237 650 -340 930
-102 281 -193 529 -202 553 l-16 42 -613 0 -614 0 103 -127z"/>
<path d="M1463 3278 c4 -12 62 -171 282 -773 177 -486 358 -980 550 -1505 114
-311 214 -585 222 -610 21 -60 29 -67 41 -33 5 15 132 357 282 758 476 1279
560 1504 657 1765 52 140 108 290 124 333 l28 77 -1095 0 c-873 0 -1095 -3
-1091 -12z"/>
<path d="M3845 3273 c-12 -32 -188 -503 -604 -1623 -226 -608 -420 -1127 -431
-1154 -11 -27 -19 -50 -17 -52 1 -1 50 57 108 129 104 130 852 1058 1153 1432
85 105 222 276 306 380 195 241 494 613 627 778 l103 127 -619 0 c-580 0 -619
-1 -626 -17z"/>
</g>
</svg>
